<?xml version="1.0" encoding="utf-8"?>
<!-- Generator: Adobe Illustrator 16.0.0, SVG Export Plug-In . SVG Version: 6.00 Build 0)  -->
<!DOCTYPE svg PUBLIC "-//W3C//DTD SVG 1.1//EN" "http://www.w3.org/Graphics/SVG/1.1/DTD/svg11.dtd">
<svg version="1.1" id="Layer_1" xmlns="http://www.w3.org/2000/svg" xmlns:xlink="http://www.w3.org/1999/xlink" x="0px" y="0px"
	 width="48.75px" height="36.649px" viewBox="0 0 48.75 36.649" enable-background="new 0 0 48.75 36.649" xml:space="preserve">
<g>
	<g>
		<polygon fill="#404041" points="16.661,5.74 17.563,4.732 16.661,3.723 17.657,4.639 18.657,3.723 17.753,4.732 18.657,5.74 
			17.657,4.828 		"/>
	</g>
	<ellipse fill="#404041" cx="23.952" cy="18.324" rx="3.12" ry="3.152"/>
	<path fill="#404041" d="M43.624,8.172L12.149,0.207c-3.63-0.918-7.304,1.303-8.215,4.97L0.205,20.184
		c-0.908,3.663,1.294,7.375,4.923,8.293L36.6,36.441c3.629,0.922,7.307-1.304,8.219-4.969l3.727-15.008
		C49.454,12.801,47.25,9.09,43.624,8.172z M15.069,8.684L9.733,7.568C8.814,7.374,8.159,6.758,8.272,6.193L8.946,2.92
		c0.117-0.567,0.958-0.869,1.879-0.675l5.334,1.112c0.921,0.191,1.577,0.811,1.458,1.375L16.95,8.004
		C16.833,8.572,15.991,8.875,15.069,8.684z M23.95,26.104c-4.256,0-7.705-3.484-7.705-7.779c0-4.297,3.449-7.779,7.705-7.779
		c4.257,0,7.708,3.482,7.708,7.779C31.659,22.619,28.208,26.104,23.95,26.104z"/>
</g>
</svg>
