<?xml version="1.0" encoding="utf-8"?>
<!-- Generator: Adobe Illustrator 16.0.0, SVG Export Plug-In . SVG Version: 6.00 Build 0)  -->
<!DOCTYPE svg PUBLIC "-//W3C//DTD SVG 1.1//EN" "http://www.w3.org/Graphics/SVG/1.1/DTD/svg11.dtd">
<svg version="1.1" id="Layer_1" xmlns="http://www.w3.org/2000/svg" xmlns:xlink="http://www.w3.org/1999/xlink" x="0px" y="0px"
	 width="24.944px" height="47.432px" viewBox="0 0 24.944 47.432" enable-background="new 0 0 24.944 47.432" xml:space="preserve">
<g>
	<path fill-rule="evenodd" clip-rule="evenodd" fill="#404041" d="M23.58,19.705c-0.453,0.457-2.572,0-2.572,0v26.168
		c0,1.043-0.84,1.559-2.529,1.559c-1.807,0-2.705-0.516-2.705-1.559V19.705c0,0-1.965,0.427-2.391,0c-3.068-3.078,0-17.432,0-17.432
		L14.115,0l0.537,2.273v10.77h3.131V2.273L18.494,0l0.711,2.273v10.77h2.922V2.273L22.867,0l0.713,2.273
		C23.58,2.273,26.65,16.627,23.58,19.705z"/>
	<path fill-rule="evenodd" clip-rule="evenodd" fill="#404041" d="M7.062,45.973c0,0.977-0.746,1.459-2.242,1.459
		c-1.693,0-2.541-0.482-2.541-1.459V27.788l-1.975-4.169c0,0-2.486-17.797,6.758-23.619C6.794,7.881,7.062,45.973,7.062,45.973z"/>
</g>
</svg>
