<?xml version="1.0" encoding="utf-8"?>
<!-- Generator: Adobe Illustrator 16.0.0, SVG Export Plug-In . SVG Version: 6.00 Build 0)  -->
<!DOCTYPE svg PUBLIC "-//W3C//DTD SVG 1.1//EN" "http://www.w3.org/Graphics/SVG/1.1/DTD/svg11.dtd">
<svg version="1.1" id="Layer_1" xmlns="http://www.w3.org/2000/svg" xmlns:xlink="http://www.w3.org/1999/xlink" x="0px" y="0px"
	 width="37.935px" height="46.898px" viewBox="0 0 37.935 46.898" enable-background="new 0 0 37.935 46.898" xml:space="preserve">
<path fill-rule="evenodd" clip-rule="evenodd" fill="#404041" d="M35.698,1.248c1.1,0.756,1.863,1.549,2.236,2.381
	c-0.483,0.807-1.121,1.707-1.914,2.68c-0.797,0.968-1.669,1.761-2.636,2.397L32.772,8.75l-6.941,10.705
	c1.599,1.244,2.674,2.461,3.219,3.68c0.725,1.749,0.631,3.288-0.27,4.597c-0.909,1.321-1.721,2.154-2.436,2.537
	c-1.298,0.641-2.02,1.055-2.145,1.238c-0.559,0.813-0.74,1.76-0.578,2.852c0.333,2.318-0.046,4.826-1.131,7.542
	c-1.079,2.701-3.324,4.353-6.742,4.929c-2.109,0.374-5.115-0.782-9.035-3.443c-3.925-2.737-6.081-5.129-6.451-7.211
	c-0.709-3.414,0.018-6.109,2.169-8.071c2.163-1.978,4.367-3.228,6.653-3.746c1.073-0.241,1.896-0.745,2.455-1.559
	c0.125-0.183,0.254-1.006,0.402-2.437c0.062-0.832,0.553-1.887,1.471-3.2c0.914-1.3,2.33-1.93,4.248-1.862
	c1.257,0.024,2.766,0.581,4.551,1.667l7.547-10.289l-0.216-0.613c0.251-1.129,0.665-2.236,1.29-3.325
	c0.61-1.101,1.221-2.016,1.828-2.74C33.57,0.054,34.585,0.485,35.698,1.248L35.698,1.248z M20.766,22.721
	c-1.915-1.317-3.477-1.037-4.702,0.852c-1.316,1.913-1.035,3.518,0.855,4.817c1.877,1.293,3.474,0.979,4.789-0.935
	C22.934,25.566,22.616,23.994,20.766,22.721L20.766,22.721z M7.726,34.247l-0.836,1.26l6.879,4.733l0.859-1.247L7.726,34.247z
	 M31.107,5.036L31.107,5.036c0.141,0.062,0.262,0.017,0.378-0.153c0.114-0.167,0.089-0.313-0.086-0.431
	c-0.184-0.129-0.342-0.108-0.455,0.056c-0.117,0.171-0.104,0.307,0.014,0.427l-0.816,2.06L8.9,36.319l0.149,0.102l21.229-29.33
	L31.107,5.036z M33.034,2.076L33.034,2.076l-2.213,5.387l-20.837,29.6l0.188,0.132L30.97,7.565l2.214-5.388
	c0.141,0.061,0.269,0.008,0.377-0.15c0.117-0.169,0.087-0.313-0.085-0.431c-0.185-0.125-0.342-0.114-0.459,0.056
	C32.908,1.81,32.918,1.958,33.034,2.076L33.034,2.076z M35.715,3.918c0.14,0.061,0.269,0.008,0.38-0.15
	c0.115-0.17,0.084-0.313-0.089-0.431c-0.185-0.129-0.341-0.114-0.456,0.056c-0.11,0.158-0.102,0.307,0.018,0.424l-4.016,4.15
	L11.11,37.839l0.146,0.102L31.696,8.066L35.715,3.918z M33.9,6.958c0.177,0.085,0.321,0.057,0.439-0.113
	c0.114-0.167,0.073-0.321-0.11-0.447c-0.175-0.121-0.319-0.091-0.434,0.072c-0.099,0.147-0.102,0.255-0.018,0.348l-1.534,1.624
	L12.197,38.587l0.134,0.092L32.377,8.533L33.9,6.958z"/>
</svg>
