<?xml version="1.0" encoding="utf-8"?>
<!-- Generator: Adobe Illustrator 16.0.0, SVG Export Plug-In . SVG Version: 6.00 Build 0)  -->
<!DOCTYPE svg PUBLIC "-//W3C//DTD SVG 1.1//EN" "http://www.w3.org/Graphics/SVG/1.1/DTD/svg11.dtd">
<svg version="1.1" id="Layer_1" xmlns="http://www.w3.org/2000/svg" xmlns:xlink="http://www.w3.org/1999/xlink" x="0px" y="0px"
	 width="49.3px" height="46.911px" viewBox="0 0 49.3 46.911" enable-background="new 0 0 49.3 46.911" xml:space="preserve">
<g>
	<path fill-rule="evenodd" clip-rule="evenodd" fill="#404041" d="M44.272,33.393c0.221-5.18-0.505-9.533-2.86-10.408
		c-0.225-0.087-1.021-0.357-1.559-0.393c-3.771-0.269-4.484,4.378-4.734,10.156c-0.25,5.775,0.06,10.496,3.831,10.762
		c0.536,0.037,1.35-0.117,1.577-0.168C42.938,42.799,44.044,38.575,44.272,33.393z"/>
	<path fill-rule="evenodd" clip-rule="evenodd" fill="#404041" d="M46.993,23.538c-0.55-1.125-0.995-1.786-1.376-2.203
		c0.121-0.438,0.059-0.906,0.059-0.906c-0.029-0.172-0.148-0.347-0.303-0.472c-0.398-1.533-1.262-5.031-3.625-8.836
		c-0.168-0.271-0.347-0.544-0.533-0.82c0.962-0.264,1.55-1.009,0.958-2.144C37.977,3.176,31.619,0,24.501,0
		C17.51,0,11.254,3.072,7.057,7.908c-0.5,0.918-0.032,1.768,0.832,2.154c-0.247,0.355-0.484,0.71-0.699,1.059
		c-2.361,3.805-3.225,7.303-3.623,8.835c-0.156,0.126-0.274,0.301-0.303,0.473c0,0-0.068,0.528,0.086,0.987
		c-0.44,0.373-0.962,1.098-1.633,2.698C-0.409,29.18-0.271,36.27,0.581,39.323c0.851,3.051,2.46,5.414,3.997,6.406
		c2.718,1.758,4.365,1.092,5.084,0.889c0.84-0.24,1.003-1.197,0.834-2.518c0.284,0.016,0.594,0.02,0.842-0.018
		c3.75-0.539,3.796-5.271,3.228-11.018c-0.57-5.746-1.543-10.333-5.292-9.796c-0.533,0.075-1.311,0.406-1.531,0.507
		c-2.304,1.043-2.788,5.441-2.277,10.6c0.512,5.152,1.854,9.287,4.289,9.648c0.02,0.004,0.066,0.01,0.096,0.012
		c-0.484,0.012-1.026-0.051-1.212-0.08c-2.437-0.367-3.777-4.5-4.286-9.652c-0.467-4.691-0.09-8.725,1.711-10.205
		c-0.38-1.426-0.793-2.504-1.258-2.933c0.011-0.104,0.011-0.215-0.008-0.337c0.234-1.117,1.18-5.06,3.609-8.955
		c0.365-0.587,0.759-1.121,1.156-1.652c0.419-0.087,0.854-0.268,1.273-0.563c3.811-2.781,8.543-4.432,13.665-4.432
		c5.208,0,10.008,1.701,13.851,4.568c0.328,0.222,0.691,0.377,1.062,0.479c0.382,0.515,0.766,1.032,1.12,1.601
		c2.281,3.658,3.254,7.362,3.558,8.725c-0.533,0.125-0.958,1.146-1.308,2.639c2.308,1.047,2.789,5.442,2.28,10.598
		c-0.514,5.154-1.854,9.285-4.288,9.654c-0.185,0.031-0.726,0.086-1.213,0.072c0.018-0.027,0.034-0.059,0.081-0.072
		c-0.05,0.004-0.139,0.016-0.241,0.025c0.013,0.025,0.013,0.023,0.023,0.045c-0.011,0-0.021,0-0.03,0
		c-0.2,1.625-0.047,2.814,0.92,3.018c0.727,0.15,2.409,0.691,5.024-1.252c1.478-1.107,2.952-3.578,3.632-6.688
		C49.653,35.526,49.398,28.442,46.993,23.538z"/>
</g>
</svg>
