<?xml version="1.0" encoding="utf-8"?>
<!-- Generator: Adobe Illustrator 16.0.0, SVG Export Plug-In . SVG Version: 6.00 Build 0)  -->
<!DOCTYPE svg PUBLIC "-//W3C//DTD SVG 1.1//EN" "http://www.w3.org/Graphics/SVG/1.1/DTD/svg11.dtd">
<svg version="1.1" id="Layer_1" xmlns="http://www.w3.org/2000/svg" xmlns:xlink="http://www.w3.org/1999/xlink" x="0px" y="0px"
	 width="49.156px" height="47.139px" viewBox="0 0 49.156 47.139" enable-background="new 0 0 49.156 47.139" xml:space="preserve">
<path fill="#404041" d="M48.47,0H0.684C0.392,0,0.146,0.161,0,0.392v31.13v1.052v1.01c2.884,0.673,12.709,1.18,19.535,1.364v8.861
	h-5.911c-0.921,0-1.667,0.745-1.667,1.662c0,0.923,0.747,1.668,1.667,1.668h22.127c0.922,0,1.67-0.745,1.67-1.668
	c0-0.917-0.748-1.662-1.67-1.662h-5.912v-8.833c6.542-0.145,16.061-0.581,19.316-1.18v-1.223v-1.262V0.392
	C49.009,0.161,48.763,0,48.47,0z M14.437,33.37c-0.571,0-1.034-0.461-1.034-1.029c0-0.574,0.463-1.034,1.034-1.034
	s1.035,0.46,1.035,1.034C15.472,32.909,15.008,33.37,14.437,33.37z M17.479,33.37c-0.574,0-1.035-0.461-1.035-1.029
	c0-0.571,0.461-1.034,1.035-1.034c0.573,0,1.033,0.463,1.033,1.034C18.512,32.909,18.052,33.37,17.479,33.37z M24.298,33.37
	c-2.286,0-4.14-0.461-4.14-1.029c0-0.571,1.854-1.034,4.14-1.034s4.139,0.463,4.139,1.034C28.437,32.909,26.583,33.37,24.298,33.37z
	 M31.378,33.37c-0.572,0-1.035-0.461-1.035-1.029c0-0.571,0.463-1.034,1.035-1.034s1.033,0.463,1.033,1.034
	C32.412,32.909,31.951,33.37,31.378,33.37z M34.417,33.37c-0.568,0-1.035-0.461-1.035-1.029c0-0.571,0.467-1.034,1.035-1.034
	c0.572,0,1.035,0.463,1.035,1.034C35.453,32.909,34.99,33.37,34.417,33.37z M45.322,29.791H3.833V3.176h41.489V29.791z"/>
</svg>
