<?xml version="1.0" encoding="utf-8"?>
<!-- Generator: Adobe Illustrator 16.0.0, SVG Export Plug-In . SVG Version: 6.00 Build 0)  -->
<!DOCTYPE svg PUBLIC "-//W3C//DTD SVG 1.1//EN" "http://www.w3.org/Graphics/SVG/1.1/DTD/svg11.dtd">
<svg version="1.1" id="Layer_1" xmlns="http://www.w3.org/2000/svg" xmlns:xlink="http://www.w3.org/1999/xlink" x="0px" y="0px"
	 width="49.595px" height="33.031px" viewBox="0 0 49.595 33.031" enable-background="new 0 0 49.595 33.031" xml:space="preserve">
<g>
	<path fill="#404041" d="M29.137,25.976c0,1.482-1.24,2.684-2.771,2.684H14.286c-1.53,0-2.771-1.201-2.771-2.684v-5.139
		c0-1.482,1.241-2.682,2.771-2.682h12.079c1.531,0,2.771,1.199,2.771,2.682V25.976z"/>
	<path fill="#404041" d="M36.734,7.997H29.07l-4.259-7.178V0.678H16.44C16.18,0.268,15.79,0,15.346,0H6.913
		C6.13,0,5.496,0.815,5.496,1.821c0,1.006,0.634,1.822,1.417,1.822h8.433c0.444,0,0.834-0.267,1.095-0.678h6.984l2.985,5.032H5.742
		C2.572,7.997,0,10.352,0,13.254v14.521c0,2.902,2.572,5.256,5.742,5.256h30.993c4.145,0,4.387-5.445,5.285-7.271v-11.01
		C41.225,12.836,41.752,8.586,36.734,7.997z M30.742,26.582c0,1.883-1.467,3.411-3.276,3.411H13.187
		c-1.809,0-3.276-1.528-3.276-3.411v-6.537c0-1.885,1.467-3.41,3.276-3.41h14.279c1.81,0,3.276,1.525,3.276,3.41V26.582z"/>
	<path fill="#404041" d="M49.518,11.363l-6.783,3.452c-0.023-0.05-0.023,10.75,0,10.71l6.783,3.096
		C49.609,21.213,49.629,13.978,49.518,11.363z"/>
</g>
</svg>
